<svg xmlns="http://www.w3.org/2000/svg" width="373" height="373" viewBox="0 0 373 373">
  <g id="r" transform="translate(2291 905)">
    <rect id="Rectangle_9" data-name="Rectangle 9" width="373" height="373" rx="61" transform="translate(-2291 -905)" fill="#fff" opacity="0.6"/>
    <path id="Union_1" data-name="Union 1" d="M3.168,160.995A24.4,24.4,0,0,1,.013,148.07c-1.2-28.018,48.588-56.41,147.481-13.562a416.976,416.976,0,0,0,30.971-35.127,9.358,9.358,0,0,1-2.684-3.918,8.167,8.167,0,0,1-1.385-5.611c-.524-3.961,2.044-7.747,7.153-7.747,2.376,0,4.884,1.188,7.656,3.432,6.732-8.712,13.068-17.424,19.139-25.74,11.458-15.508,22-29.8,31.545-40.648-30.562,2.726-61.866,14.517-74.763,38.807l-1.95-1.068-1.926-1-1.413-.707c14.256-26.928,52.6-42.241,87.052-43.429C252.7,5.94,258.242,1.848,263.258,0l.755,2.014.745,1.9L266,6.8a36.248,36.248,0,0,0-8.4,4.914c29.118,1.093,53.8,11.379,56.806,30.249,2.1,6.082,1.767,13.192-1.711,21.306-14.124,32.6-60.852,43.956-95.436,43.956-2.5,0-4.992-.07-7.387-.21,23.643,26.973,58.9,64.65,109.875,53.365l.791,3.438h-.007l.284,1.207.71,2.787C266.488,179.958,229.014,137.056,205.385,110c-1.056-1.188-2.111-2.376-3.036-3.564A78.311,78.311,0,0,1,184.4,102.6a449.431,449.431,0,0,1-30.188,34.887c6.885,3.189,14.632,7.339,21.631,10.951l-1.529,2.443-1.493,2.607c-8.58-4.487-15.745-7.459-23.666-10.892-25.871,25.344-54.779,44.088-86.592,44.088C29.13,186.688,9.412,174.9,3.168,160.995Zm58.394,18.261c29.322,0,56.3-16.5,80.711-39.627C47.129,99.849,1.12,127.793,4.987,153.736,9.772,167.285,28.592,179.256,61.562,179.256ZM202.934,99.132c4.224.4,8.712.66,13.332.66,34.056,0,78.936-10.824,92.268-41.844a30.212,30.212,0,0,0,2.646-10.716,21.249,21.249,0,0,0-1.767-7.652c-8.075-14.308-32.617-21.613-59.543-21.06-10.956,10.956-23.5,27.984-37.752,47.388-5.661,7.754-11.668,15.853-17.8,23.975C196.99,92.532,199.884,95.675,202.934,99.132Zm-8.2-1.041c-1.369-1.439-2.651-2.725-3.865-3.8-.6.841-1.229,1.682-1.871,2.522C190.751,97.276,192.676,97.715,194.73,98.091ZM181.021,93.72a6.158,6.158,0,0,0,1.32.661c1.094-1.347,2.135-2.694,3.156-4.041a6.948,6.948,0,0,0-2.948-.8c-2.029,0-3.264.987-3.653,2.334A7.618,7.618,0,0,0,181.021,93.72Z" transform="translate(-2274.618 -817.696)" stroke="rgba(0,0,0,0)" stroke-miterlimit="10" stroke-width="1"/>
  </g>
</svg>
